# xmcd CD database file
#
# Track frame offsets:
#	150
#	10504
#	18835
#	43711
#	47903
#	73296
#	82413
#	93073
#	95347
#	103473
#	113497
#	144028
#	147504
#	157747
#	158679
#	170051
#	192376
#	226948
#	228178
#	240795
#	251298
#	263307
#	267963
#	278223
#	287374
#	310454
#	313754
#	328055
#	333434
#
# Disc length: 4642 seconds
#
# Revision: 1
# Processed by: cddbd v1.5.2PL0 Copyright (c) Steve Scherf et al.
# Submitted via: CDex 1.51
#
DISCID=8112201d
DTITLE=Bhajans for Beginners - Vol. 2 Practice
DYEAR=2009
DGENRE=Bhajans
TTITLE0=01
TTITLE1=02
TTITLE2=03
TTITLE3=04
TTITLE4=05
TTITLE5=06
TTITLE6=07
TTITLE7=08
TTITLE8=09
TTITLE9=10
TTITLE10=11
TTITLE11=12
TTITLE12=13
TTITLE13=14
TTITLE14=15
TTITLE15=16
TTITLE16=17
TTITLE17=18
TTITLE18=19
TTITLE19=20
TTITLE20=21
TTITLE21=22
TTITLE22=23
TTITLE23=24
TTITLE24=25
TTITLE25=26
TTITLE26=27
TTITLE27=28
TTITLE28=29
EXTD=YEAR: 2009
EXTT0=
EXTT1=
EXTT2=
EXTT3=
EXTT4=
EXTT5=
EXTT6=
EXTT7=
EXTT8=
EXTT9=
EXTT10=
EXTT11=
EXTT12=
EXTT13=
EXTT14=
EXTT15=
EXTT16=
EXTT17=
EXTT18=
EXTT19=
EXTT20=
EXTT21=
EXTT22=
EXTT23=
EXTT24=
EXTT25=
EXTT26=
EXTT27=
EXTT28=
PLAYORDER=
